HIERARCHY
ROOT Hips
{
	OFFSET -0.001795 -0.223333 0.028219
	CHANNELS 6 Xposition Yposition Zposition Zrotation Yrotation Xrotation 
	JOINT LeftUpLeg
	{
		OFFSET 0.069520 -0.091406 -0.006815
		CHANNELS 3 Zrotation Yrotation Xrotation
		JOINT LeftLeg
		{
			OFFSET 0.034277 -0.375199 -0.004496
			CHANNELS 3 Zrotation Yrotation Xrotation
			JOINT LeftFoot
			{
				OFFSET -0.013596 -0.397961 -0.043693
				CHANNELS 3 Zrotation Yrotation Xrotation
				JOINT LeftToe
				{
					OFFSET 0.026358 -0.055791 0.119288
					CHANNELS 3 Zrotation Yrotation Xrotation
					End Site
					{
						OFFSET 0.000000 0.000000 0.000000
					}
				}
			}
		}
	}
	JOINT RightUpLeg
	{
		OFFSET -0.067670 -0.090522 -0.004320
		CHANNELS 3 Zrotation Yrotation Xrotation
		JOINT RightLeg
		{
			OFFSET -0.038290 -0.382569 -0.008850
			CHANNELS 3 Zrotation Yrotation Xrotation
			JOINT RightFoot
			{
				OFFSET 0.015774 -0.398415 -0.042312
				CHANNELS 3 Zrotation Yrotation Xrotation
				JOINT RightToe
				{
					OFFSET -0.025372 -0.048144 0.123348
					CHANNELS 3 Zrotation Yrotation Xrotation
					End Site
					{
						OFFSET 0.000000 0.000000 0.000000
					}
				}
			}
		}
	}
	JOINT Spine
	{
		OFFSET -0.002533 0.108963 -0.026696
		CHANNELS 3 Zrotation Yrotation Xrotation
		JOINT Spine1
		{
			OFFSET 0.005487 0.135180 0.001092
			CHANNELS 3 Zrotation Yrotation Xrotation
			JOINT Spine2
			{
				OFFSET 0.001457 0.052922 0.025425
				CHANNELS 3 Zrotation Yrotation Xrotation
				JOINT Neck
				{
					OFFSET -0.002778 0.213870 -0.042857
					CHANNELS 3 Zrotation Yrotation Xrotation
					JOINT Head
					{
						OFFSET 0.005152 0.064970 0.051349
						CHANNELS 3 Zrotation Yrotation Xrotation
						End Site
						{
							OFFSET 0.000000 0.000000 0.000000
						}
					}
				}
				JOINT LeftShoulder
				{
					OFFSET 0.078845 0.121749 -0.034090
					CHANNELS 3 Zrotation Yrotation Xrotation
					JOINT LeftArm
					{
						OFFSET 0.090977 0.030469 -0.008868
						CHANNELS 3 Zrotation Yrotation Xrotation
						JOINT LeftForeArm
						{
							OFFSET 0.259612 -0.012772 -0.027456
							CHANNELS 3 Zrotation Yrotation Xrotation
							JOINT LeftHand
							{
								OFFSET 0.249234 0.008986 -0.001171
								CHANNELS 3 Zrotation Yrotation Xrotation
								End Site
								{
									OFFSET 0.000000 0.000000 0.000000
								}
							}
						}
					}
				}
				JOINT RightShoulder
				{
					OFFSET -0.081759 0.118833 -0.038615
					CHANNELS 3 Zrotation Yrotation Xrotation
					JOINT RightArm
					{
						OFFSET -0.096012 0.032551 -0.009143
						CHANNELS 3 Zrotation Yrotation Xrotation
						JOINT RightForeArm
						{
							OFFSET -0.253742 -0.013329 -0.021401
							CHANNELS 3 Zrotation Yrotation Xrotation
							JOINT RightHand
							{
								OFFSET -0.255298 0.007772 -0.005559
								CHANNELS 3 Zrotation Yrotation Xrotation
								End Site
								{
									OFFSET 0.000000 0.000000 0.000000
								}
							}
						}
					}
				}
			}
		}
	}
}
MOTION
Frames: 9
Frame Time: 0.050000
0.000000 0.957314 0.000000 -0.106496 -5.305108 -2.206471 3.123681 0.294959 4.018051 -2.095111 0.334422 -4.928500 5.119074 12.735279 14.647061 0.000000 0.000000 0.000000 -3.159375 -0.060680 2.323543 2.805742 -0.305471 -2.707955 -3.732480 -12.619201 12.263571 0.000000 0.000000 0.000000 5.723332 -0.413273 4.663601 -6.493791 2.173021 -22.280627 -1.584470 7.104998 28.047485 9.342201 -3.984478 -21.782583 0.000000 0.000000 0.000000 -10.852569 -6.561709 1.962807 -53.125981 -1.164880 -8.277739 -10.279280 -27.225504 3.658115 0.000000 0.000000 0.000000 19.000958 -5.236675 -3.002182 56.654100 0.633950 -7.851263 11.950648 23.450877 3.586138 0.000000 0.000000 0.000000 
0.000110 0.955948 -0.000122 -0.003464 -5.849970 -1.882697 2.956061 0.328645 4.357657 -1.979904 0.340254 -5.559027 5.775761 13.593638 13.555534 0.000000 0.000000 0.000000 -3.347138 -0.005523 1.739740 2.546969 -0.266741 -1.657420 -3.734650 -12.623136 12.019748 0.000000 0.000000 0.000000 6.022297 -0.444999 4.845792 -6.952330 2.277507 -22.495176 -1.768444 7.506181 27.751651 10.002273 -4.285177 -22.382115 0.000000 0.000000 0.000000 -10.629317 -6.958020 2.142643 -53.275300 -1.005973 -8.360448 -9.761912 -27.470801 3.566201 0.000000 0.000000 0.000000 19.051425 -5.185756 -2.983204 57.517897 -0.107822 -8.249506 11.531124 24.198996 3.638968 0.000000 0.000000 0.000000 
0.000278 0.955244 -0.000624 0.171041 -5.581677 -1.617966 3.073854 0.245762 3.340324 -2.289250 0.334924 -3.962464 5.860355 13.754072 13.700725 0.000000 0.000000 0.000000 -3.373115 -0.000501 1.676370 2.115541 -0.239560 -1.920368 -3.154063 -11.471780 11.677649 0.000000 0.000000 0.000000 6.520382 -0.449277 4.618062 -7.138214 2.328424 -22.541567 -2.049658 7.417020 28.364312 10.012123 -4.191423 -23.008243 0.000000 0.000000 0.000000 -10.804184 -7.987425 2.604242 -52.770029 -1.030676 -8.325913 -9.668460 -25.748593 3.289495 0.000000 0.000000 0.000000 18.817180 -4.572390 -2.592989 57.411474 0.218233 -8.144650 11.413676 24.241863 3.618360 0.000000 0.000000 0.000000 
0.000285 0.955358 -0.000997 0.272534 -5.637277 -1.957410 2.966712 0.296476 3.949431 -2.110627 0.333924 -4.752439 5.879101 13.821137 14.153561 0.000000 0.000000 0.000000 -3.579952 0.005735 1.705948 2.334369 -0.258823 -2.069394 -3.118960 -11.639069 12.598273 0.000000 0.000000 0.000000 6.502659 -0.495612 5.202121 -7.145081 2.329621 -22.644169 -2.410759 7.603327 28.676777 10.506324 -4.534562 -22.850531 0.000000 0.000000 0.000000 -10.078445 -8.884525 2.997094 -52.763860 -0.493033 -8.597325 -9.118295 -25.430727 3.107505 0.000000 0.000000 0.000000 19.018882 -4.189801 -2.337449 56.043761 0.515670 -7.927618 12.446807 23.692103 3.722264 0.000000 0.000000 0.000000 
0.000251 0.955265 -0.001164 0.463784 -5.954922 -2.087976 2.642746 0.292962 3.726477 -1.981008 0.318278 -4.416026 6.042598 14.066970 14.501385 0.000000 0.000000 0.000000 -3.654499 0.020165 1.571592 2.081792 -0.231590 -1.728639 -2.630224 -10.732936 12.320109 0.000000 0.000000 0.000000 6.361852 -0.539270 5.791418 -6.647984 2.209841 -22.075405 -2.876117 7.636289 27.992841 10.386586 -4.600376 -22.054984 0.000000 0.000000 0.000000 -9.719193 -9.230870 3.156609 -52.809622 -0.426341 -8.565828 -9.622835 -24.605178 3.100752 0.000000 0.000000 0.000000 18.501133 -3.670946 -2.083482 55.263021 0.765259 -7.639298 13.215441 23.526110 3.807223 0.000000 0.000000 0.000000 
0.000182 0.955393 -0.001016 0.595805 -6.363197 -2.139480 2.341877 0.316317 3.867468 -1.856336 0.316407 -4.758978 6.255956 14.367751 14.679245 0.000000 0.000000 0.000000 -3.889595 0.034028 1.598171 2.263530 -0.246894 -1.916532 -2.296632 -10.193429 12.379345 0.000000 0.000000 0.000000 6.507550 -0.569848 6.085877 -6.830496 2.244915 -22.253800 -2.890244 7.790363 28.497949 10.243075 -4.483331 -22.360789 0.000000 0.000000 0.000000 -9.165577 -9.477820 3.294596 -52.101574 -0.390264 -8.521636 -10.175982 -23.636334 3.080141 0.000000 0.000000 0.000000 18.167810 -3.463731 -1.962895 54.480552 1.244841 -7.394522 13.415845 22.774851 3.687487 0.000000 0.000000 0.000000 
0.000099 0.955324 -0.000763 0.717221 -6.419492 -2.066474 2.285100 0.338905 4.123505 -1.877361 0.334994 -5.526474 6.437279 14.699600 15.642946 0.000000 0.000000 0.000000 -3.881617 0.046685 1.401730 2.028673 -0.227044 -1.820023 -2.135803 -9.931807 12.445028 0.000000 0.000000 0.000000 6.483740 -0.587145 6.276357 -6.633506 2.202011 -21.840016 -3.265372 7.722271 28.208760 10.470370 -4.700033 -22.039401 0.000000 0.000000 0.000000 -8.928243 -9.694619 3.392976 -51.137773 0.159410 -8.551334 -10.292040 -23.520720 3.072027 0.000000 0.000000 0.000000 17.969165 -3.157975 -1.812723 53.447008 1.361799 -7.208859 13.965462 22.676145 3.753216 0.000000 0.000000 0.000000 
-0.000018 0.955147 -0.000451 0.803507 -6.388968 -1.728913 2.298197 0.325038 3.986784 -1.810747 0.337729 -5.882992 6.766230 15.191662 15.633511 0.000000 0.000000 0.000000 -3.976828 0.071351 1.103139 1.939661 -0.219253 -1.778081 -2.043312 -9.684034 12.177016 0.000000 0.000000 0.000000 6.447165 -0.593537 6.287374 -6.591394 2.194512 -21.626603 -3.528112 7.614785 28.008706 10.713346 -4.931075 -21.674753 0.000000 0.000000 0.000000 -8.252772 -9.981484 3.516859 -50.118650 1.127671 -8.733310 -11.155075 -23.958831 3.298294 0.000000 0.000000 0.000000 17.284420 -3.051854 -1.744044 52.381599 1.353327 -7.056367 14.971998 22.265283 3.843436 0.000000 0.000000 0.000000 
-0.000180 0.955147 -0.000165 0.853497 -6.535018 -1.651163 2.309139 0.347295 4.252308 -1.733770 0.347651 -6.494467 6.921580 15.434520 16.116491 0.000000 0.000000 0.000000 -4.095826 0.082949 1.038577 1.998464 -0.229297 -2.087756 -1.875969 -9.536954 12.649149 0.000000 0.000000 0.000000 6.439931 -0.610693 6.471989 -6.634001 2.210240 -21.367319 -3.603518 7.629416 27.778988 10.894249 -5.062247 -21.630770 0.000000 0.000000 0.000000 -7.699207 -9.849484 3.461047 -49.412187 2.188075 -8.995371 -11.807864 -24.160240 3.455688 0.000000 0.000000 0.000000 17.113288 -2.923373 -1.684881 50.972142 1.531753 -6.812812 15.804025 21.719840 3.866465 0.000000 0.000000 0.000000 
